<svg width="40" height="40" viewBox="0 0 40 40" fill="none" xmlns="http://www.w3.org/2000/svg">
<path d="M40 5C40 7.76142 37.7614 10 35 10C33.4474 10 32.0601 9.29236 31.143 8.18202L13.9996 13.0802C13.9897 13.9596 13.8177 14.8 13.512 15.573L32.6314 30.5955C33.3364 30.2156 34.143 30 35 30C37.7614 30 40 32.2386 40 35C40 37.7614 37.7614 40 35 40C32.2386 40 30 37.7614 30 35C30 34.565 30.0556 34.143 30.16 33.7406L11.0396 18.7175C10.2578 19.2708 9.35755 19.6679 8.38433 19.8631L7.40677 30.6163C8.95253 31.4668 10 33.1111 10 35C10 37.7614 7.76142 40 5 40C2.23858 40 0 37.7614 0 35C0 32.7895 1.43443 30.9141 3.42323 30.2537L4.40071 19.5015C1.82175 18.4695 0 15.9475 0 13C0 9.13401 3.13401 6 7 6C9.47952 6 11.6579 7.28918 12.9015 9.23382L30.0437 4.33606C30.3684 1.88849 32.4637 0 35 0C37.7614 0 40 2.23858 40 5Z" fill="white" fill-opacity="0.4"/>
</svg>
