<svg width="493" height="219" viewBox="0 0 493 219" fill="none" xmlns="http://www.w3.org/2000/svg">
<mask id="path-1-outside-1" maskUnits="userSpaceOnUse" x="-1" y="-1" width="494" height="220" fill="black">
<rect fill="white" x="-1" y="-1" width="494" height="220"/>
<path fill-rule="evenodd" clip-rule="evenodd" d="M134 10H10V209H134H483V68H134V10Z"/>
</mask>
<path fill-rule="evenodd" clip-rule="evenodd" d="M134 10H10V209H134H483V68H134V10Z" fill="#272729"/>
<path d="M10 10V0C4.47715 0 0 4.47715 0 10L10 10ZM134 10H144C144 4.47715 139.523 0 134 0V10ZM10 209H0C0 214.523 4.47715 219 10 219L10 209ZM483 209V219C488.523 219 493 214.523 493 209H483ZM483 68H493C493 62.4772 488.523 58 483 58V68ZM134 68H124C124 73.5228 128.477 78 134 78V68ZM10 20H134V0H10V20ZM20 209V10H0V209H20ZM134 199H10V219H134V199ZM483 199H134V219H483V199ZM473 68V209H493V68H473ZM134 78H483V58H134V78ZM124 10V68H144V10H124Z" fill="white" mask="url(#path-1-outside-1)"/>
<rect x="24" y="83" width="445" height="112" fill="white"/>
<path d="M45.5756 57.432C42.6956 57.432 40.1196 56.856 37.8476 55.704C35.5756 54.552 33.7996 52.952 32.5196 50.904C31.2716 48.856 30.6476 46.536 30.6476 43.944C30.6476 41.352 31.2716 39.048 32.5196 37.032C33.7996 34.984 35.5756 33.4 37.8476 32.28C40.1196 31.128 42.6956 30.552 45.5756 30.552C48.5196 30.552 51.0636 31.192 53.2076 32.472C55.3516 33.72 56.8716 35.464 57.7676 37.704L50.7116 41.304C49.5276 38.968 47.7996 37.8 45.5276 37.8C43.8956 37.8 42.5356 38.344 41.4476 39.432C40.3916 40.52 39.8636 42.024 39.8636 43.944C39.8636 45.896 40.3916 47.432 41.4476 48.552C42.5356 49.64 43.8956 50.184 45.5276 50.184C47.7996 50.184 49.5276 49.016 50.7116 46.68L57.7676 50.28C56.8716 52.52 55.3516 54.28 53.2076 55.56C51.0636 56.808 48.5196 57.432 45.5756 57.432ZM88.4242 30.984V57H79.7362V54.408C78.0402 56.424 75.4802 57.432 72.0562 57.432C69.6882 57.432 67.5282 56.888 65.5762 55.8C63.6562 54.68 62.1202 53.096 60.9682 51.048C59.8482 49 59.2882 46.632 59.2882 43.944C59.2882 41.256 59.8482 38.904 60.9682 36.888C62.1202 34.84 63.6562 33.272 65.5762 32.184C67.5282 31.096 69.6882 30.552 72.0562 30.552C75.1282 30.552 77.5442 31.448 79.3042 33.24V30.984H88.4242ZM73.9762 50.184C75.5762 50.184 76.8882 49.64 77.9122 48.552C78.9362 47.432 79.4482 45.896 79.4482 43.944C79.4482 42.024 78.9362 40.52 77.9122 39.432C76.8882 38.344 75.5762 37.8 73.9762 37.8C72.3762 37.8 71.0642 38.344 70.0402 39.432C69.0162 40.52 68.5042 42.024 68.5042 43.944C68.5042 45.896 69.0162 47.432 70.0402 48.552C71.0642 49.64 72.3762 50.184 73.9762 50.184ZM102.983 34.104C103.911 32.92 105.111 32.04 106.583 31.464C108.087 30.856 109.799 30.552 111.719 30.552V38.76C110.887 38.664 110.199 38.616 109.655 38.616C107.703 38.616 106.167 39.144 105.047 40.2C103.959 41.256 103.415 42.872 103.415 45.048V57H94.2952V30.984H102.983V34.104Z" fill="white"/>
<path d="M198.486 148.432V171H183.744V148.25L159.083 107.3H174.735L191.752 135.601L208.769 107.3H223.238L198.486 148.432ZM223.564 139.696H249.317V151.071H223.564V139.696Z" fill="black"/>
<path d="M261.488 107.3H276.23V158.988H308.171V171H261.488V107.3ZM358.892 157.35H329.317L323.675 171H308.569L336.961 107.3H351.521L380.004 171H364.534L358.892 157.35ZM354.251 146.157L344.15 121.769L334.049 146.157H354.251ZM433.387 137.876C437.027 139.029 439.878 140.97 441.941 143.7C444.003 146.369 445.035 149.676 445.035 153.619C445.035 159.2 442.851 163.508 438.483 166.541C434.175 169.514 427.866 171 419.555 171H386.613V107.3H417.735C425.5 107.3 431.445 108.786 435.571 111.759C439.757 114.732 441.85 118.766 441.85 123.862C441.85 126.956 441.091 129.716 439.575 132.143C438.119 134.57 436.056 136.481 433.387 137.876ZM401.264 118.402V133.417H415.915C419.555 133.417 422.315 132.78 424.196 131.506C426.076 130.232 427.017 128.351 427.017 125.864C427.017 123.377 426.076 121.526 424.196 120.313C422.315 119.039 419.555 118.402 415.915 118.402H401.264ZM418.463 159.898C422.345 159.898 425.257 159.261 427.199 157.987C429.201 156.713 430.202 154.741 430.202 152.072C430.202 146.794 426.289 144.155 418.463 144.155H401.264V159.898H418.463Z" fill="#320C86"/>
<path d="M126.1 126.5H116.628L113.995 120C111.29 113.317 104.834 109 97.5454 109H77.4536C70.1667 109 63.7089 113.317 61.002 120L58.3695 126.5H48.8994C47.6639 126.5 46.7574 127.647 47.058 128.83L48.0072 132.58C48.2176 133.414 48.977 134 49.8487 134H53.0238C50.8991 135.833 49.5307 138.497 49.5307 141.5V149C49.5307 151.519 50.5052 153.792 52.0619 155.552V164C52.0619 166.761 54.329 169 57.1244 169H62.1869C64.9824 169 67.2495 166.761 67.2495 164V159H107.75V164C107.75 166.761 110.017 169 112.812 169H117.875C120.67 169 122.937 166.761 122.937 164V155.552C124.494 153.794 125.468 151.52 125.468 149V141.5C125.468 138.497 124.1 135.833 121.977 134H125.152C126.024 134 126.783 133.414 126.993 132.58L127.943 128.83C128.242 127.647 127.335 126.5 126.1 126.5ZM70.4024 123.714C71.5557 120.867 74.348 119 77.4536 119H97.5454C100.651 119 103.443 120.867 104.597 123.714L107.75 131.5H67.2495L70.4024 123.714ZM62.1869 148.969C59.1494 148.969 57.1244 146.975 57.1244 143.984C57.1244 140.994 59.1494 139 62.1869 139C65.2244 139 69.7807 143.486 69.7807 146.477C69.7807 149.467 65.2244 148.969 62.1869 148.969ZM112.812 148.969C109.775 148.969 105.218 149.467 105.218 146.477C105.218 143.486 109.775 139 112.812 139C115.85 139 117.875 140.994 117.875 143.984C117.875 146.975 115.85 148.969 112.812 148.969V148.969Z" fill="#320C86"/>
</svg>
